# xmcd
#
# Track frame offsets:
#	150
#	13841
#	27351
#	43178
#	58174
#	70623
#	86805
#	100141
#	116346
#	129778
#	143931
#	158241
#	173019
#	187430
#	202420
#	217113
#	232477
#	246327
#
# Disc length: 3494 seconds
#
# Revision: 1
# Processed by: cddbd v1.4PL0 Copyright (c) Steve Scherf et al.
# Submitted via: CDmax 1.8
#
DISCID=190da412
DTITLE=Blind Boy Fuller - Screaming and Crying Blues
DYEAR=2000
DGENRE=Blues
TTITLE0=Sweet Honey Hole
TTITLE1=You've Got Something There
TTITLE2=Baby You Gotta Change Your Mind
TTITLE3=Baby I Don't Have To Worry
TTITLE4=Screamin' And Crying' Blues
TTITLE5=Put You Back In The Jail
TTITLE6=Big Leg Woman Gets My Pay
TTITLE7=I'm Climbin' On Top Of The Hill
TTITLE8=Mamie
TTITLE9=I'm A Stranger Here
TTITLE10=You Can Never Tell
TTITLE11=Walking And Looking Blues
TTITLE12=Step It Up And Go
TTITLE13=Ain't It A Cryin' Shame
TTITLE14=My Brown Skin Sugar Plum
TTITLE15=Some Day Your Gonna Be Sorry
TTITLE16=Untrue Blues
TTITLE17=Somebody's Been Playin' With That Thing
EXTD=
EXTT0=
EXTT1=
EXTT2=
EXTT3=
EXTT4=
EXTT5=
EXTT6=
EXTT7=
EXTT8=
EXTT9=
EXTT10=
EXTT11=
EXTT12=
EXTT13=
EXTT14=
EXTT15=
EXTT16=
EXTT17=
PLAYORDER=
